<svg width="32" height="32" viewBox="0 0 32 32" fill="none" xmlns="http://www.w3.org/2000/svg">
  <defs>
    <linearGradient id="faviconGradient" x1="0%" y1="0%" x2="100%" y2="100%">
      <stop offset="0%" stop-color="#6366f1" />
      <stop offset="100%" stop-color="#4f46e5" />
    </linearGradient>
  </defs>
  
  <!-- Background Circle -->
  <circle cx="16" cy="16" r="15" fill="url(#faviconGradient)" stroke="rgba(255, 255, 255, 0.2)" stroke-width="1"/>
  
  <!-- Document -->
  <rect x="8" y="6" width="11" height="16" rx="1" fill="white" opacity="0.9"/>
  
  <!-- Document Corner -->
  <path d="M 16 6 L 19 6 L 19 9 Z" fill="rgba(255, 255, 255, 0.7)"/>
  <path d="M 16 6 L 16 9 L 19 9" stroke="rgba(255, 255, 255, 0.5)" stroke-width="0.5" fill="none"/>
  
  <!-- Text Lines -->
  <rect x="10" y="10" width="6" height="0.8" rx="0.4" fill="#6366f1" opacity="0.8"/>
  <rect x="10" y="12" width="8" height="0.8" rx="0.4" fill="#6366f1" opacity="0.7"/>
  <rect x="10" y="14" width="5" height="0.8" rx="0.4" fill="#6366f1" opacity="0.6"/>
  <rect x="10" y="16" width="7" height="0.8" rx="0.4" fill="#6366f1" opacity="0.7"/>
  <rect x="10" y="18" width="4" height="0.8" rx="0.4" fill="#6366f1" opacity="0.6"/>
  
  <!-- Star -->
  <path d="M 22 20 L 23 22 L 25 22 L 23.5 23.5 L 24 25.5 L 22 24.5 L 20 25.5 L 20.5 23.5 L 19 22 L 21 22 Z" fill="white" opacity="0.9"/>
</svg>
